<svg width="23" height="26" viewBox="0 0 23 26" fill="none" xmlns="http://www.w3.org/2000/svg">
<path fill-rule="evenodd" clip-rule="evenodd" d="M11.5 3.93961V13H3.95905C3.7441 11.8111 3.64477 10.6636 3.60955 9.64944C3.53178 7.41002 5.33023 5.77818 7.46615 5.10076C7.52164 5.08316 7.5762 5.0653 7.62971 5.0472C8.06253 4.90073 8.56485 4.69077 9.06136 4.46569C9.83503 4.11497 10.6675 3.93961 11.5 3.93961Z" fill="white" fill-opacity="0.8"/>
<path fill-rule="evenodd" clip-rule="evenodd" d="M11.5 22.4958C10.9889 22.4958 10.4779 22.3799 10.0106 22.1481C6.18033 20.2482 4.58283 16.45 3.95905 13H11.5V22.4958Z" fill="white" fill-opacity="0.8"/>
<path fill-rule="evenodd" clip-rule="evenodd" d="M19.0409 13H11.5V3.93961C12.3325 3.93961 13.165 4.11497 13.9386 4.46569C14.4351 4.69077 14.9375 4.90073 15.3703 5.0472C15.4238 5.0653 15.4783 5.08316 15.5338 5.10076C17.6698 5.77818 19.4682 7.41002 19.3904 9.64944C19.3552 10.6636 19.2559 11.8111 19.0409 13Z" fill="white" fill-opacity="0.8"/>
<path fill-rule="evenodd" clip-rule="evenodd" d="M19.0409 13C18.4172 16.45 16.8196 20.2482 12.9894 22.1481C12.5221 22.3799 12.011 22.4958 11.5 22.4958V13H19.0409Z" fill="white" fill-opacity="0.8"/>
<path d="M17.8808 11.6391C18.929 12.5555 18.929 14.1092 17.8808 15.0256C16.4343 16.2903 14.1749 17.8011 11.636 17.8011C9.09709 17.8011 6.83771 16.2903 5.39115 15.0256C4.34297 14.1092 4.34297 12.5555 5.39115 11.6391C6.83771 10.3744 9.09709 8.86365 11.636 8.86365C14.1749 8.86365 16.4343 10.3744 17.8808 11.6391Z" fill="white" fill-opacity="0.8"/>
<ellipse cx="11.636" cy="13.3324" rx="2.51562" ry="2.84375" fill="white" fill-opacity="0.8"/>
<path d="M13.4329 12.5199C13.8298 12.5199 14.1516 12.1561 14.1516 11.7074C14.1516 11.2587 13.8298 10.8949 13.4329 10.8949C13.0359 10.8949 12.7141 11.2587 12.7141 11.7074C12.7141 12.1561 13.0359 12.5199 13.4329 12.5199Z" fill="white" fill-opacity="0.8"/>
<path d="M12.7141 12.9261C12.9126 12.9261 13.0735 12.7443 13.0735 12.5199C13.0735 12.2955 12.9126 12.1136 12.7141 12.1136C12.5156 12.1136 12.3547 12.2955 12.3547 12.5199C12.3547 12.7443 12.5156 12.9261 12.7141 12.9261Z" fill="white" fill-opacity="0.8"/>
</svg>
