<svg width="22" height="26" viewBox="0 0 22 26" fill="none" xmlns="http://www.w3.org/2000/svg">
<path fill-rule="evenodd" clip-rule="evenodd" d="M11 4.00183V13H3.78693C3.58143 11.8118 3.48641 10.6648 3.45267 9.65104C3.37814 7.41105 5.1851 5.79472 7.29799 5.04721C7.65457 4.92106 8.06046 4.7478 8.46964 4.55836C9.271 4.18734 10.1355 4.00183 11 4.00183Z" fill="white" fill-opacity="0.8"/>
<path fill-rule="evenodd" clip-rule="evenodd" d="M11 22.4727C10.4696 22.4727 9.93915 22.3442 9.45958 22.0871C5.87936 20.1678 4.37727 16.4134 3.78693 13H11V22.4727Z" fill="white" fill-opacity="0.8"/>
<path fill-rule="evenodd" clip-rule="evenodd" d="M18.2131 13H11V4.00183C11.8645 4.00183 12.729 4.18734 13.5304 4.55836C13.9395 4.7478 14.3454 4.92106 14.702 5.04721C16.8149 5.79472 18.6219 7.41104 18.5473 9.65103C18.5136 10.6648 18.4186 11.8118 18.2131 13Z" fill="white" fill-opacity="0.8"/>
<path fill-rule="evenodd" clip-rule="evenodd" d="M18.2131 13C17.6227 16.4134 16.1206 20.1678 12.5404 22.0871C12.0608 22.3442 11.5304 22.4727 11 22.4727V13H18.2131Z" fill="white" fill-opacity="0.8"/>
<path d="M17.1423 11.6748C18.1313 12.5851 18.1313 14.0797 17.1423 14.99C15.7604 16.2618 13.5814 17.8011 11.1301 17.8011C8.6787 17.8011 6.49975 16.2618 5.11788 14.99C4.12879 14.0797 4.12879 12.5851 5.11788 11.6748C6.49975 10.403 8.6787 8.86365 11.1301 8.86365C13.5814 8.86365 15.7604 10.403 17.1423 11.6748Z" fill="white" fill-opacity="0.8"/>
<ellipse cx="11.1301" cy="13.3324" rx="2.40625" ry="2.84375" fill="white" fill-opacity="0.8"/>
<path d="M12.8488 12.5199C13.2285 12.5199 13.5363 12.1561 13.5363 11.7074C13.5363 11.2587 13.2285 10.8949 12.8488 10.8949C12.4691 10.8949 12.1613 11.2587 12.1613 11.7074C12.1613 12.1561 12.4691 12.5199 12.8488 12.5199Z" fill="white" fill-opacity="0.8"/>
<path d="M12.1613 12.9261C12.3512 12.9261 12.5051 12.7443 12.5051 12.5199C12.5051 12.2955 12.3512 12.1136 12.1613 12.1136C11.9715 12.1136 11.8176 12.2955 11.8176 12.5199C11.8176 12.7443 11.9715 12.9261 12.1613 12.9261Z" fill="white" fill-opacity="0.8"/>
</svg>
