<svg width="30" height="30" viewBox="0 0 30 30" fill="none" xmlns="http://www.w3.org/2000/svg">
<g clip-path="url(#clip0_9_748)">
<rect width="30" height="30" fill="white"/>
<path d="M29.8796 28.5486L15.6896 0.457143C15.5446 0.171429 15.2796 0 14.9946 0C14.7096 0 14.4446 0.177143 14.2996 0.457143L0.109604 28.5486C-0.0353955 28.8343 -0.0353955 29.1829 0.109604 29.4629C0.254604 29.7486 0.519605 29.92 0.804604 29.92H29.1846C29.4696 29.92 29.7346 29.7429 29.8796 29.4629C30.0246 29.1771 30.0246 28.8286 29.8796 28.5486Z" fill="white"/>
<path d="M2.19934 28.0871L14.9993 2.85913L27.7993 28.0871H2.19934Z" fill="#D71717"/>
<path d="M16.8938 24.8359C16.8939 25.1203 16.8449 25.4019 16.7497 25.6647C16.6545 25.9274 16.515 26.1662 16.3391 26.3673C16.1631 26.5684 15.9542 26.728 15.7244 26.8368C15.4945 26.9457 15.2481 27.0017 14.9992 27.0017C14.7504 27.0017 14.504 26.9457 14.2741 26.8368C14.0442 26.728 13.8353 26.5684 13.6594 26.3673C13.4834 26.1662 13.3439 25.9274 13.2487 25.6647C13.1535 25.4019 13.1046 25.1203 13.1046 24.8359C13.1046 24.5515 13.1535 24.2699 13.2487 24.0072C13.3439 23.7444 13.4834 23.5056 13.6594 23.3045C13.8353 23.1034 14.0442 22.9439 14.2741 22.835C14.504 22.7262 14.7504 22.6702 14.9992 22.6702C15.2481 22.6702 15.4945 22.7262 15.7244 22.835C15.9542 22.9439 16.1631 23.1034 16.3391 23.3045C16.515 23.5056 16.6545 23.7444 16.7497 24.0072C16.8449 24.2699 16.8939 24.5515 16.8938 24.8359Z" fill="white" stroke="black" stroke-opacity="0.4" stroke-width="0.0636054" stroke-linecap="square"/>
<path d="M15.0002 9.6341C13.9678 9.6341 13.1368 10.604 13.1368 11.8088L13.6878 19.4267C13.793 20.4121 13.8829 20.9704 14.2387 21.2329C14.4711 21.3539 14.7285 21.4228 15.0002 21.4228C15.2706 21.4228 15.5269 21.3547 15.7584 21.2348C16.1162 20.973 16.2071 20.4143 16.3126 19.4267L16.8636 11.8088C16.8636 10.604 16.0326 9.6341 15.0002 9.6341Z" fill="white" stroke="white" stroke-width="0.0883409" stroke-linecap="square"/>
</g>
<defs>
<clipPath id="clip0_9_748">
<rect width="30" height="30" fill="white"/>
</clipPath>
</defs>
</svg>
