<svg width="19" height="26" viewBox="0 0 19 26" fill="none" xmlns="http://www.w3.org/2000/svg">
<path d="M9.5 25.8975C7.78585 24.3477 6.19698 22.6487 4.75 20.8182C2.57857 18.0693 1.19278e-06 13.9754 1.19278e-06 10.0743C-0.000940526 8.08199 0.555762 6.13414 1.59966 4.47728C2.64355 2.82043 4.12771 1.52905 5.86431 0.76657C7.6009 0.00409493 9.51187 -0.1952 11.3554 0.193908C13.1989 0.583015 14.892 1.54303 16.2206 2.95247C17.1051 3.88583 17.8062 4.99586 18.2833 6.21833C18.7604 7.44079 19.004 8.7514 19 10.0743C19 13.9754 16.4214 18.0693 14.25 20.8182C12.803 22.6487 11.2141 24.3477 9.5 25.8975ZM9.5 5.75892C8.42019 5.75892 7.38461 6.21357 6.62106 7.02287C5.85752 7.83216 5.42857 8.9298 5.42857 10.0743C5.42857 11.2188 5.85752 12.3165 6.62106 13.1258C7.38461 13.9351 8.42019 14.3897 9.5 14.3897C10.5798 14.3897 11.6154 13.9351 12.3789 13.1258C13.1425 12.3165 13.5714 11.2188 13.5714 10.0743C13.5714 8.9298 13.1425 7.83216 12.3789 7.02287C11.6154 6.21357 10.5798 5.75892 9.5 5.75892Z" fill="#438E5D"/>
</svg>
